<mxfile host="65bd71144e">
    <diagram id="Ddu7oX7cdBwSngWlefQp" name="Page-1">
        <mxGraphModel dx="2140" dy="766" grid="1" gridSize="10" guides="1" tooltips="1" connect="1" arrows="1" fold="1" page="1" pageScale="1" pageWidth="1100" pageHeight="850" math="0" shadow="0">
            <root>
                <mxCell id="0"/>
                <mxCell id="1" parent="0"/>
                <mxCell id="29" value="&lt;b&gt;GenericCallable&lt;/b&gt;" style="rounded=0;whiteSpace=wrap;html=1;verticalAlign=top;fillColor=#dae8fc;strokeColor=#6c8ebf;" vertex="1" parent="1">
                    <mxGeometry x="70" y="130" width="760" height="270" as="geometry"/>
                </mxCell>
                <mxCell id="25" value="" style="group" vertex="1" connectable="0" parent="1">
                    <mxGeometry x="90" y="180" width="690" height="30" as="geometry"/>
                </mxCell>
                <mxCell id="3" value="Async Job 1" style="rounded=0;whiteSpace=wrap;html=1;" vertex="1" parent="25">
                    <mxGeometry width="86.25" height="30" as="geometry"/>
                </mxCell>
                <mxCell id="18" value="Async Job 2" style="rounded=0;whiteSpace=wrap;html=1;" vertex="1" parent="25">
                    <mxGeometry x="86.25" width="86.25" height="30" as="geometry"/>
                </mxCell>
                <mxCell id="19" value="Async Job 3" style="rounded=0;whiteSpace=wrap;html=1;" vertex="1" parent="25">
                    <mxGeometry x="172.5" width="86.25" height="30" as="geometry"/>
                </mxCell>
                <mxCell id="20" value="Async Job 4" style="rounded=0;whiteSpace=wrap;html=1;" vertex="1" parent="25">
                    <mxGeometry x="258.75" width="86.25" height="30" as="geometry"/>
                </mxCell>
                <mxCell id="21" value="Async Job 5" style="rounded=0;whiteSpace=wrap;html=1;" vertex="1" parent="25">
                    <mxGeometry x="345" width="86.25" height="30" as="geometry"/>
                </mxCell>
                <mxCell id="22" value="Async Job 6" style="rounded=0;whiteSpace=wrap;html=1;" vertex="1" parent="25">
                    <mxGeometry x="431.24999999999994" width="86.25" height="30" as="geometry"/>
                </mxCell>
                <mxCell id="23" value="........." style="rounded=0;whiteSpace=wrap;html=1;" vertex="1" parent="25">
                    <mxGeometry x="517.5" width="86.25" height="30" as="geometry"/>
                </mxCell>
                <mxCell id="24" value="Async Job n" style="rounded=0;whiteSpace=wrap;html=1;" vertex="1" parent="25">
                    <mxGeometry x="603.75" width="86.25" height="30" as="geometry"/>
                </mxCell>
                <mxCell id="28" style="edgeStyle=orthogonalEdgeStyle;rounded=0;orthogonalLoop=1;jettySize=auto;html=1;entryX=0.61;entryY=1.006;entryDx=0;entryDy=0;entryPerimeter=0;" edge="1" parent="1" source="27" target="19">
                    <mxGeometry relative="1" as="geometry"/>
                </mxCell>
                <mxCell id="35" style="edgeStyle=orthogonalEdgeStyle;rounded=0;orthogonalLoop=1;jettySize=auto;html=1;exitX=1;exitY=0.5;exitDx=0;exitDy=0;entryX=-0.001;entryY=0.517;entryDx=0;entryDy=0;entryPerimeter=0;" edge="1" parent="1" source="27" target="30">
                    <mxGeometry relative="1" as="geometry">
                        <Array as="points">
                            <mxPoint x="860" y="270"/>
                        </Array>
                    </mxGeometry>
                </mxCell>
                <mxCell id="27" value="exceute" style="shape=process;whiteSpace=wrap;html=1;backgroundOutline=1;" vertex="1" parent="1">
                    <mxGeometry x="270" y="250" width="90" height="40" as="geometry"/>
                </mxCell>
                <mxCell id="30" value="Class/Method Configuration" style="rounded=0;whiteSpace=wrap;html=1;verticalAlign=top;fillColor=#d5e8d4;strokeColor=#82b366;" vertex="1" parent="1">
                    <mxGeometry x="860" y="130" width="120" height="270" as="geometry"/>
                </mxCell>
                <mxCell id="31" value="Class/Method 1" style="rounded=1;whiteSpace=wrap;html=1;verticalAlign=top;" vertex="1" parent="1">
                    <mxGeometry x="870" y="210" width="100" height="30" as="geometry"/>
                </mxCell>
                <mxCell id="32" value="Class/Method 1" style="rounded=1;whiteSpace=wrap;html=1;verticalAlign=top;" vertex="1" parent="1">
                    <mxGeometry x="870" y="260" width="100" height="30" as="geometry"/>
                </mxCell>
                <mxCell id="33" value="..." style="rounded=1;whiteSpace=wrap;html=1;verticalAlign=top;" vertex="1" parent="1">
                    <mxGeometry x="870" y="310" width="100" height="30" as="geometry"/>
                </mxCell>
                <mxCell id="34" value="Class/Method n" style="rounded=1;whiteSpace=wrap;html=1;verticalAlign=top;" vertex="1" parent="1">
                    <mxGeometry x="870" y="360" width="100" height="30" as="geometry"/>
                </mxCell>
                <mxCell id="36" value="Service Class" style="rounded=0;whiteSpace=wrap;html=1;verticalAlign=top;fillColor=#ffe6cc;strokeColor=#d79b00;" vertex="1" parent="1">
                    <mxGeometry x="-90" y="130" width="120" height="270" as="geometry"/>
                </mxCell>
                <mxCell id="38" value="Prepare Job 1" style="rounded=1;whiteSpace=wrap;html=1;verticalAlign=top;" vertex="1" parent="1">
                    <mxGeometry x="-80" y="190" width="100" height="30" as="geometry"/>
                </mxCell>
                <mxCell id="39" value="Prepare Job 2" style="rounded=1;whiteSpace=wrap;html=1;verticalAlign=top;" vertex="1" parent="1">
                    <mxGeometry x="-80" y="230" width="100" height="30" as="geometry"/>
                </mxCell>
                <mxCell id="40" value="..." style="rounded=1;whiteSpace=wrap;html=1;verticalAlign=top;" vertex="1" parent="1">
                    <mxGeometry x="-80" y="270" width="100" height="30" as="geometry"/>
                </mxCell>
                <mxCell id="41" value="Prepare Job n" style="rounded=1;whiteSpace=wrap;html=1;verticalAlign=top;" vertex="1" parent="1">
                    <mxGeometry x="-80" y="310" width="100" height="30" as="geometry"/>
                </mxCell>
                <mxCell id="43" style="edgeStyle=orthogonalEdgeStyle;rounded=0;orthogonalLoop=1;jettySize=auto;html=1;exitX=1;exitY=0.5;exitDx=0;exitDy=0;entryX=0;entryY=0.5;entryDx=0;entryDy=0;" edge="1" parent="1" source="42" target="29">
                    <mxGeometry relative="1" as="geometry"/>
                </mxCell>
                <mxCell id="42" value="Run" style="shape=process;whiteSpace=wrap;html=1;backgroundOutline=1;" vertex="1" parent="1">
                    <mxGeometry x="-75" y="350" width="90" height="40" as="geometry"/>
                </mxCell>
            </root>
        </mxGraphModel>
    </diagram>
</mxfile>